<?xml version="1.0" encoding="utf-8"?>
<!-- Generator: Adobe Illustrator 24.0.2, SVG Export Plug-In . SVG Version: 6.00 Build 0)  -->
<svg version="1.1" id="Layer_1" xmlns="http://www.w3.org/2000/svg" xmlns:xlink="http://www.w3.org/1999/xlink" x="0px" y="0px"
	 viewBox="0 0 512 512" style="enable-background:new 0 0 512 512;" xml:space="preserve">
<style type="text/css">
	.st0{fill:#41479B;}
	.st1{fill:#FF4B55;}
	.st2{fill:#64B496;}
	.st3{fill:#FF6B71;}
	.st4{fill:#5F64B9;}
	.st5{fill:#F5F5F5;}
	.st6{fill:#FFE15A;}
	.st7{fill:#464655;}
	.st8{fill:#F5F0F0;}
</style>
<g>
	<path class="st0" d="M202.1,0H112C50.1,0,0,50.1,0,112v90.1h202.1V0z"/>
	<path class="st0" d="M309.9,512H400c61.9,0,112-50.1,112-112v-90.1H309.9V512z"/>
</g>
<g>
	<path class="st1" d="M400,0h-90.1v202.1H512V112C512,50.1,461.9,0,400,0z"/>
	<path class="st1" d="M0,309.9V400c0,61.9,50.1,112,112,112h90.1V309.9H0z"/>
</g>
<g>
	<path class="st2" d="M248.3,294.4c0,0,8,2.9,7,13.1l3.3-0.1c0,0-2.1-11.7-3.8-13.1C253.1,292.9,248.3,294.4,248.3,294.4z"/>
	<path class="st2" d="M256.3,292.9c-3.4,0-9.4,0-15.7-1.7c1.4-1.5,3.3-4.4,3.3-9.5c0-8-5.5-2.9-5.5-2.9s-3.6,3.1-1.4,11.2
		c-2.1-0.8-4.3-1.9-6.3-3.2c1.3-1.6,3.8-5.3,5.2-11.1c0,0-9.2-1.8-11.7,5.1c-1.5-2-2.9-4.2-4-6.6c2.4,0,5.7-1.5,5.7-10.5
		c0,0-6,0-7.6,5.2c-0.6-2.2-1.1-4.5-1.5-7c2.4,0.7,8.6,1.2,8.6-12.3c0,0-7.4,0-9.2,6.6c-0.1-1.7-0.1-3.4-0.1-5.2
		c3.6-1.9,8.6-6.1,8.1-14.6c0,0-3.4,0.8-6.6,3.4c0.6-3.2,0.4-8-4.6-11.9c0,0-4.6,8.1,2.1,14.6c-0.6,0.8-1.1,1.7-1.5,2.8
		c-1.5-2.3-3.9-4.4-7.8-5.7c0,0-1.8,10.8,8.3,15.3c0.2,6.3,1.2,11.9,2.9,16.7c-2.9-2.5-5.2-6.1-5.2-6.1c0-12-9.8-12.3-9.8-12.3
		c-1.8,13.7,8.3,14.3,8.3,14.3l5.6,6.1c-12-2-12,8-12,8c8,2,12-2,12-2l4.3,2.2c-7.7,0.2-10.3,7.8-10.3,7.8
		c9.7,1.6,16.7-0.7,19.1-1.6c9.7,6.8,21.7,6.8,27.2,6.8L256.3,292.9L256.3,292.9L256.3,292.9z"/>
	<path class="st2" d="M255.7,292.9c3.4,0,9.4,0,15.7-1.7c-1.4-1.5-3.3-4.4-3.3-9.5c0-8,5.5-2.9,5.5-2.9s3.6,3.1,1.4,11.2
		c2.1-0.8,4.3-1.9,6.3-3.2c-1.3-1.6-3.8-5.3-5.2-11.1c0,0,9.2-1.8,11.7,5.1c1.5-2,2.9-4.2,4-6.6c-2.4,0-5.7-1.5-5.7-10.5
		c0,0,6,0,7.6,5.2c0.6-2.2,1.1-4.5,1.5-7c-2.4,0.7-8.6,1.2-8.6-12.3c0,0,7.4,0,9.2,6.6c0.1-1.7,0.1-3.4,0.1-5.2
		c-3.6-1.9-8.6-6.1-8.1-14.6c0,0,3.4,0.8,6.6,3.4c-0.6-3.2-0.4-8,4.6-11.9c0,0,4.6,8.1-2.1,14.6c0.6,0.8,1.1,1.7,1.5,2.8
		c1.5-2.3,3.9-4.4,7.8-5.7c0,0,1.8,10.8-8.3,15.3c-0.2,6.3-1.2,11.9-2.9,16.7c2.9-2.5,5.2-6.1,5.2-6.1c0-12,9.8-12.3,9.8-12.3
		c1.8,13.7-8.3,14.3-8.3,14.3l-5.6,6.1c12-2,12,8,12,8c-8,2-12-2-12-2l-4.3,2.2c7.7,0.2,10.3,7.8,10.3,7.8
		c-9.7,1.6-16.7-0.7-19.1-1.6c-9.7,6.8-21.7,6.8-27.2,6.8L255.7,292.9L255.7,292.9L255.7,292.9z"/>
</g>
<path class="st0" d="M222.2,205.6c-7,4.5-13.3,10.3-18.3,17c2.1,1.6,4.3,3.2,6.4,4.8c4.4-6,9.9-11.1,16.1-15L222.2,205.6z"/>
<path class="st3" d="M256,257.6h28v16c0,4.4-3.6,8-8,8h-12c-3.3,0-6.2,1.6-8,4.1L256,257.6L256,257.6z"/>
<polygon class="st4" points="262,239.6 262,217.6 292.1,217.6 284.1,225.6 284.1,247.6 262,247.6 "/>
<rect x="274" y="247.6" class="st5" width="10" height="10"/>
<path class="st3" d="M256,257.6h-28v16c0,4.4,3.6,8,8,8h12c3.3,0,6.2,1.6,8,4.1V257.6z"/>
<path class="st5" d="M251,282.1c2,0.6,3.7,1.9,5,3.5h0.1c1.2-1.6,3-2.9,5-3.5v-16.5h-10V282.1z"/>
<polygon class="st4" points="250,239.6 250,217.6 220,217.6 228,225.6 228,247.6 250,247.6 "/>
<rect x="228" y="247.6" class="st5" width="10" height="10"/>
<polygon class="st0" points="238,227.6 238,233.6 244,237.6 244,233.6 "/>
<polygon class="st5" points="244,233.6 244,239.6 252,243.6 252,241.6 "/>
<polygon class="st0" points="274,227.6 274,233.6 268,237.6 268,233.6 "/>
<polygon class="st5" points="268,233.6 268,239.6 260,243.6 260,241.6 "/>
<path class="st1" d="M268.1,271.6h-24.2c-5.5,0-9.9-4.5-9.9-10v-31l22.2,15l21.9-15v31C278,267.2,273.6,271.6,268.1,271.6z"/>
<g>
	<polygon class="st0" points="242,235.6 234,229.6 234,251.6 242,255.6 	"/>
	<polygon class="st0" points="270,235.6 278,229.6 278,251.6 270,255.6 	"/>
	<rect x="244" y="255.6" class="st0" width="24" height="10"/>
</g>
<polygon class="st1" points="244,237.6 256,243.6 268,237.6 268,255.6 244,255.6 "/>
<g>
	<path class="st5" d="M265,239.5v20.1c0,1.7-1.3,3-3,3h-12c-1.7,0-3-1.3-3-3v-20.1l-6-4v24.1c0,5,4,9,9,9h12c5,0,9-4,9-9v-24.2
		L265,239.5z"/>
	<path class="st5" d="M267.1,253.5c-3.4,0.3-7.2,0.6-11.1,2c-3.9-1.4-7.7-1.7-11.1-2c-5.6-0.5-9-1-10.9-4.4v5.8
		c2.9,1.9,6.7,2.3,10.6,2.6c3.5,0.3,7.1,0.6,10.8,2l0.7,0.3l0.7-0.3c3.7-1.4,7.3-1.7,10.8-2c3.9-0.3,7.6-0.7,10.6-2.6v-5.8
		C276.1,252.5,272.8,253,267.1,253.5z"/>
</g>
<polygon class="st6" points="260,234.6 257,234.6 257,231.6 255,231.6 255,234.6 252,234.6 252,236.6 255,236.6 255,245.6 
	257,245.6 257,236.6 260,236.6 "/>
<rect x="244.8" y="222.4" transform="matrix(0.7071 -0.7071 0.7071 0.7071 -94.1396 242.4763)" class="st7" width="1.6" height="24.9"/>
<polygon class="st6" points="233.5,222.8 235.7,227.2 237.9,225 "/>
<rect x="247.3" y="220.7" transform="matrix(0.8083 -0.5888 0.5888 0.8083 -89.7191 190.7898)" class="st7" width="1.6" height="24.9"/>
<polygon class="st6" points="238,219.3 239.5,224 242,222.2 "/>
<rect x="242.9" y="224.5" transform="matrix(0.5725 -0.8199 0.8199 0.5725 -90.1126 301.0495)" class="st7" width="1.6" height="24.9"/>
<polygon class="st6" points="229.6,227.2 232.5,231.1 234.3,228.6 "/>
<rect x="253.9" y="234.1" transform="matrix(0.7071 -0.7071 0.7071 0.7071 -88.048 257.148)" class="st7" width="24.9" height="1.6"/>
<polygon class="st6" points="278.5,222.8 276.3,227.2 274.1,225 "/>
<rect x="251.5" y="232.4" transform="matrix(0.5888 -0.8083 0.8083 0.5888 -79.9286 309.222)" class="st7" width="24.9" height="1.6"/>
<polygon class="st6" points="274,219.3 272.5,224 270,222.2 "/>
<rect x="255.9" y="236.2" transform="matrix(0.8199 -0.5725 0.5725 0.8199 -87.3241 196.3309)" class="st7" width="24.9" height="1.6"/>
<polygon class="st6" points="282.4,227.2 279.5,231.1 277.7,228.6 "/>
<path class="st5" d="M255,281.1c0,0-7.7-8.3-6.2-16c1.2-6.1,4.9-12.9,7.7-14.6c0,0,4.1-0.3,3,3.3c-1,3.5-2.3,4.4-1.9,7.9
	C258.3,267.8,259.2,274.9,255,281.1z"/>
<path class="st0" d="M257.4,250.6c-0.5-0.1-0.9,0-0.9,0c-2.9,1.6-6.5,8.4-7.7,14.6c-0.7,3.5,0.6,7.1,2.1,10
	C249.9,262.5,253.6,258.1,257.4,250.6z"/>
<path class="st1" d="M257.6,261.8c-0.4-3.5,0.9-4.4,1.9-7.9c0.7-2.5-1.1-3.1-2.2-3.2c0,0-2.6,5.9-2.8,9.9
	c-0.1,3.5,0.8,17.8,0.4,20.5C259.2,274.9,258.3,267.8,257.6,261.8z"/>
<path class="st8" d="M252.4,253.6c1.6-1.6,3.9-2.3,6.1-1.9c-1.1-3.4-2.1-6.8-3.2-10.2c-2.2-0.4-4.5,0.3-6.1,1.9
	C250.3,246.8,251.3,250.2,252.4,253.6z"/>
<path class="st5" d="M258.5,251.7c1.6-1.6,3.9-2.3,6.1-1.9c-1.1-3.4-2.1-6.8-3.2-10.2c-2.2-0.4-4.5,0.3-6.1,1.9
	C256.4,244.9,257.4,248.3,258.5,251.7z"/>
<path class="st4" d="M246.9,207.7c-10.9-0.3-21.6,2.4-31.1,7.7c-1.3-2.3-2.6-4.7-3.9-7c10.7-6,22.9-9,35.2-8.8
	C247,202.4,246.9,205,246.9,207.7z"/>
<path class="st0" d="M289.8,205.6c7,4.5,13.3,10.3,18.3,17c-2.1,1.6-4.3,3.2-6.4,4.8c-4.4-6-9.9-11.1-16.1-15L289.8,205.6z"/>
<path class="st4" d="M265.2,207.7c10.9-0.3,21.6,2.4,31.1,7.7c1.3-2.3,2.6-4.7,3.9-7c-10.7-6-22.9-9-35.2-8.8
	C265,202.4,265.1,205,265.2,207.7z"/>
<path class="st0" d="M272,205.6c-10.5-2.9-21.6-2.9-32,0c-0.7-2.6-1.4-5.2-2.1-7.7c11.9-3.2,24.4-3.2,36.3,0
	C273.5,200.4,272.7,203,272,205.6z"/>
<g>
	<path class="st3" d="M229.2,295.3c-8.6,2.3-17.1,5.3-25.2,9.1c1.1,2.4,2.3,4.8,3.4,7.2c7.9-3.7,16-6.6,24.4-8.8L229.2,295.3z"/>
	<path class="st3" d="M282.9,295.3c8.6,2.3,17.1,5.3,25.2,9.1c-1.1,2.4-2.3,4.8-3.4,7.2c-7.9-3.7-16-6.6-24.4-8.8L282.9,295.3z"/>
</g>
<g>
	<path class="st1" d="M288.2,301.5c-21.1-5.1-43-5.1-64.1,0c-0.6-2.6-1.2-5.2-1.9-7.8c22.3-5.4,45.5-5.4,67.8,0
		C289.5,296.3,288.9,298.9,288.2,301.5z"/>
	<path class="st1" d="M256,303.7l-5.5,1.4c-1.3,0.3-2.5-0.6-2.5-1.9v-2.9c0-1.3,1.2-2.3,2.5-1.9l5.5,1.4V303.7z"/>
	<path class="st1" d="M256,299.7l5.5-1.4c1.3-0.3,2.5,0.6,2.5,1.9v2.9c0,1.3-1.2,2.3-2.5,1.9l-5.5-1.4V299.7z"/>
</g>
<path class="st3" d="M256.5,303.7h-0.9c-0.9,0-1.6-0.7-1.6-1.6v-0.9c0-0.9,0.7-1.6,1.6-1.6h0.9c0.9,0,1.6,0.7,1.6,1.6v0.9
	C258,303,257.3,303.7,256.5,303.7z"/>
</svg>
